PathFileType	4	(X/Y/Z)	/Users/itak/Documents/Research/Walk-IL/dataset/trc/00158_00008.trc
DataRate	CameraRate	NumFrames	NumMarkers	Units	OrigDataRate	OrigDataStartFrame	OrigNumFrames
100.000000	100.000000	4	53	mm	100.000000	0	543
Frame#	Time	RPSI			LPSI			L3			STRN			T10			C7			CLAV			RBAK			LBAK			LSHO			LUPA			LAEL			LAOL			LWTS			LWPS			LFRA			LIFD			LHPS			LHTS			RSHO			RUPA			RAEL			RAOL			RWTS			RWPS			RFRA			RIFD			RHTS			RHPS			RBHD			LFHD			RFHD			LBHD			LHIP			RHIP			RASI			LASI			LKNE			LTHI			LANK			LTIP			LTOE			LMT1			LMT5			LHEE			RKNE			RTHI			RANK			RTIP			RTOE			RMT1			RMT5			RHEE			
		X1	Y1	Z1	X2	Y2	Z2	X3	Y3	Z3	X4	Y4	Z4	X5	Y5	Z5	X6	Y6	Z6	X7	Y7	Z7	X8	Y8	Z8	X9	Y9	Z9	X10	Y10	Z10	X11	Y11	Z11	X12	Y12	Z12	X13	Y13	Z13	X14	Y14	Z14	X15	Y15	Z15	X16	Y16	Z16	X17	Y17	Z17	X18	Y18	Z18	X19	Y19	Z19	X20	Y20	Z20	X21	Y21	Z21	X22	Y22	Z22	X23	Y23	Z23	X24	Y24	Z24	X25	Y25	Z25	X26	Y26	Z26	X27	Y27	Z27	X28	Y28	Z28	X29	Y29	Z29	X30	Y30	Z30	X31	Y31	Z31	X32	Y32	Z32	X33	Y33	Z33	X34	Y34	Z34	X35	Y35	Z35	X36	Y36	Z36	X37	Y37	Z37	X38	Y38	Z38	X39	Y39	Z39	X40	Y40	Z40	X41	Y41	Z41	X42	Y42	Z42	X43	Y43	Z43	X44	Y44	Z44	X45	Y45	Z45	X46	Y46	Z46	X47	Y47	Z47	X48	Y48	Z48	X49	Y49	Z49	X50	Y50	Z50	X51	Y51	Z51	X52	Y52	Z52	X53	Y53	Z53	

1	0	-1763.582397460938	1057.230102539062	-58.68637084960938	-1755.098876953125	1055.16650390625	-181.6031494140625	-1757.405029296875	1095.661499023438	-118.9363403320312	-1493.035888671875	1296.993774414062	-108.2346649169922	-1784.774780273438	1253.461303710938	-134.6937255859375	-1715.06689453125	1522.076782226562	-143.8853607177734	-1519.37158203125	1410.595703125	-119.6855392456055	-1795.266967773438	1347.44140625	-40.10990905761719	-1711.349609375	1497.854370117188	-245.6253051757812	-1625.528686523438	1481.630126953125	-315.9214782714844	-1650.028564453125	1348.066162109375	-389.1497497558594	-1626.804565429688	1127.630126953125	-401.1450500488281	-1688.7890625	1114.440673828125	-340.1569213867188	-1521.395629882812	901.1395263671875	-332.2828063964844	-1586.0791015625	876.0023193359375	-392.1583557128906	-1606.1357421875	1017.259948730469	-406.6282043457031	-1515.674926757812	718.745849609375	-295.3586120605469	-1565.598876953125	806.8759765625	-379.0987854003906	-1502.751586914062	821.5960083007812	-343.8001708984375	-1671.255126953125	1499.1220703125	43.01120376586914	-1697.922973632812	1432.413452148438	111.5603256225586	-1710.164794921875	1141.314453125	165.8197937011719	-1715.403686523438	1136.495483398438	67.18395233154297	-1555.741455078125	922.8578491210938	136.1242828369141	-1630.818603515625	899.0895385742188	181.3357849121094	-1680.072021484375	1068.57470703125	180.7365417480469	-1531.54541015625	737.4749145507812	103.1401748657227	-1524.15087890625	829.3590087890625	140.7203979492188	-1597.636474609375	817.3517456054688	173.63232421875	-1667.8408203125	1684.322387695312	-71.64160919189453	-1481.731689453125	1725.636962890625	-175.6805572509766	-1500.62548828125	1728.122192382812	-47.67708587646484	-1653.861450195312	1688.652465820312	-208.6988525390625	-1644.65576171875	989.1723022460938	-290.3848266601562	-1618.826171875	1014.631652832031	76.86456298828125	-1532.768920898438	1041.567016601562	27.86742210388184	-1523.172119140625	1025.18359375	-230.5627899169922	-1644.069946289062	495.5149841308594	-258.8385009765625	-1630.556396484375	637.16259765625	-284.8756713867188	-1735.919189453125	42.45217514038086	-270.4314575195312	-1688.359375	276.0452880859375	-278.0553894042969	-1515.931640625	39.40015411376953	-264.7836608886719	-1561.34912109375	38.26316070556641	-211.6502227783203	-1632.141479492188	34.81851959228516	-319.355712890625	-1780.67578125	40.17247772216797	-195.9591827392578	-1627.428466796875	515.0384521484375	67.60762786865234	-1576.757568359375	783.1881713867188	93.45831298828125	-1731.138671875	38.50262832641602	72.66490936279297	-1622.482177734375	397.0931396484375	54.61787796020508	-1505.96337890625	39.17002868652344	64.52027130126953	-1555.482055664062	37.01465225219727	12.63291645050049	-1622.796508789062	35.59783554077148	120.7644424438477	-1774.217163085938	38.01581192016602	-0.6474083662033081	
2	0.01	-1763.546508789062	1057.22216796875	-58.7186393737793	-1754.86962890625	1055.005737304688	-181.7699737548828	-1757.2294921875	1095.509521484375	-119.0492782592773	-1493.014282226562	1296.989501953125	-108.2879638671875	-1784.758178710938	1253.438598632812	-134.7221832275391	-1715.064819335938	1522.045654296875	-143.9491729736328	-1519.332153320312	1410.6044921875	-119.744987487793	-1795.275024414062	1347.423828125	-40.13485336303711	-1711.354125976562	1497.833374023438	-245.6698150634766	-1625.547607421875	1481.590454101562	-315.9856872558594	-1650.018310546875	1348.026977539062	-389.1915893554688	-1626.769653320312	1127.603759765625	-401.22216796875	-1688.732788085938	1114.4013671875	-340.2379455566406	-1521.281616210938	901.1089477539062	-332.3130493164062	-1585.964477539062	875.9547119140625	-392.177001953125	-1606.037475585938	1017.214294433594	-406.6645812988281	-1515.555297851562	718.677734375	-295.4406433105469	-1565.461791992188	806.8309936523438	-379.1250610351562	-1502.653076171875	821.5744018554688	-343.8086853027344	-1671.248168945312	1499.1142578125	42.94734191894531	-1697.894165039062	1432.40576171875	111.5257797241211	-1709.925659179688	1141.343505859375	165.8736267089844	-1715.287963867188	1136.467651367188	67.24714660644531	-1555.710571289062	922.7528686523438	136.0298156738281	-1630.740112304688	899.0756225585938	181.3611907958984	-1679.878173828125	1068.59375	180.7319488525391	-1531.722290039062	737.2772216796875	103.161750793457	-1524.193969726562	829.2406005859375	140.6513977050781	-1597.593383789062	817.3070068359375	173.7005920410156	-1667.806396484375	1684.327514648438	-71.65430450439453	-1481.675048828125	1725.595458984375	-175.7098083496094	-1500.59521484375	1728.03271484375	-47.68748092651367	-1653.84130859375	1688.715942382812	-208.7254028320312	-1644.607177734375	989.171142578125	-290.4171447753906	-1618.791015625	1014.633178710938	76.84515380859375	-1532.705200195312	1041.565795898438	27.83148384094238	-1523.111083984375	1025.185180664062	-230.5937805175781	-1644.026977539062	495.50830078125	-258.8683166503906	-1630.504150390625	637.156494140625	-284.9072875976562	-1735.913818359375	42.44868087768555	-270.4347839355469	-1688.328247070312	276.0345458984375	-278.0842590332031	-1515.929809570312	39.39923095703125	-264.7828369140625	-1561.3466796875	38.26333236694336	-211.6543579101562	-1632.142700195312	34.81281280517578	-319.3606262207031	-1780.677978515625	40.17996978759766	-195.9687194824219	-1627.390625	515.0439453125	67.59409332275391	-1576.930786132812	783.2017822265625	93.38568878173828	-1731.139892578125	38.50292587280273	72.67115020751953	-1622.465454101562	397.0899047851562	54.60258865356445	-1505.957153320312	39.16366577148438	64.52232360839844	-1555.480346679688	37.01387786865234	12.63404083251953	-1622.789794921875	35.60387420654297	120.7629089355469	-1774.210693359375	38.01229476928711	-0.6477994322776794	
3	0.02	-1763.502319335938	1057.20947265625	-58.75897216796875	-1754.627807617188	1054.841674804688	-181.9315338134766	-1757.01806640625	1095.321533203125	-119.1899948120117	-1492.9912109375	1296.982299804688	-108.3537979125977	-1784.73876953125	1253.407470703125	-134.7587738037109	-1715.063720703125	1522.005615234375	-144.0296936035156	-1519.26953125	1410.618896484375	-119.8189697265625	-1795.285888671875	1347.398193359375	-40.16544342041016	-1711.361083984375	1497.804809570312	-245.7265625	-1625.571899414062	1481.538452148438	-316.0665893554688	-1650.009765625	1347.975219726562	-389.246826171875	-1626.72314453125	1127.56494140625	-401.315185546875	-1688.66552734375	1114.348266601562	-340.3355102539062	-1521.146850585938	901.0647583007812	-332.3368530273438	-1585.819091796875	875.8948974609375	-392.1982116699219	-1605.9130859375	1017.155395507812	-406.7094421386719	-1515.399780273438	718.5725708007812	-295.5538940429688	-1565.279052734375	806.7748413085938	-379.1615600585938	-1502.525634765625	821.5516967773438	-343.8146362304688	-1671.2431640625	1499.104125976562	42.86533355712891	-1697.85888671875	1432.393432617188	111.4824981689453	-1709.631469726562	1141.376220703125	165.9358367919922	-1715.140991210938	1136.429809570312	67.32633972167969	-1555.663208007812	922.6261596679688	135.9140167236328	-1630.631591796875	899.06005859375	181.3936614990234	-1679.619995117188	1068.616088867188	180.7236480712891	-1531.932983398438	737.0439453125	103.1896438598633	-1524.236450195312	829.0997314453125	140.5720672607422	-1597.52099609375	817.25146484375	173.7883911132812	-1667.767700195312	1684.33154296875	-71.67372131347656	-1481.610595703125	1725.54443359375	-175.7492065429688	-1500.560791015625	1727.926635742188	-47.70231628417969	-1653.82275390625	1688.791259765625	-208.7621307373047	-1644.545288085938	989.1660766601562	-290.4562683105469	-1618.748168945312	1014.634887695312	76.82137298583984	-1532.630493164062	1041.565551757812	27.78958320617676	-1523.038818359375	1025.185424804688	-230.6301422119141	-1643.972778320312	495.5007629394531	-258.90234375	-1630.438842773438	637.1483764648438	-284.9452514648438	-1735.908935546875	42.44513320922852	-270.4391784667969	-1688.290893554688	276.0223083496094	-278.114990234375	-1515.929443359375	39.39724731445312	-264.7811889648438	-1561.345092773438	38.26337051391602	-211.6586151123047	-1632.1435546875	34.8055419921875	-319.3653869628906	-1780.681518554688	40.18727493286133	-195.9777374267578	-1627.345458984375	515.0501098632812	67.57858276367188	-1577.158325195312	783.2185668945312	93.2998046875	-1731.140991210938	38.50131988525391	72.67750549316406	-1622.442993164062	397.0860290527344	54.58620834350586	-1505.949584960938	39.15675735473633	64.52622985839844	-1555.478393554688	37.01340103149414	12.63543224334717	-1622.780883789062	35.60921096801758	120.7623519897461	-1774.205932617188	38.0092658996582	-0.6462723016738892	
4	0.03	-1763.451782226562	1057.190795898438	-58.80580520629883	-1754.395141601562	1054.6904296875	-182.0664825439453	-1756.791259765625	1095.115356445312	-119.3465042114258	-1492.9697265625	1296.971801757812	-108.4287796020508	-1784.717651367188	1253.367797851562	-134.802490234375	-1715.064331054688	1521.9580078125	-144.1238250732422	-1519.183349609375	1410.6396484375	-119.9049453735352	-1795.299560546875	1347.364624023438	-40.20093154907227	-1711.37109375	1497.768432617188	-245.7936859130859	-1625.600341796875	1481.4755859375	-316.1609497070312	-1650.00439453125	1347.911865234375	-389.3138122558594	-1626.666015625	1127.513427734375	-401.4176330566406	-1688.59130859375	1114.28173828125	-340.4440002441406	-1521.001831054688	901.0072631835938	-332.3468017578125	-1585.648559570312	875.8251342773438	-392.2200012207031	-1605.76806640625	1017.085632324219	-406.7599487304688	-1515.210693359375	718.4281005859375	-295.6981201171875	-1565.053833007812	806.7100830078125	-379.2090454101562	-1502.373901367188	821.5306396484375	-343.8167114257812	-1671.24267578125	1499.092163085938	42.76786804199219	-1697.819213867188	1432.376098632812	111.431999206543	-1709.297607421875	1141.409301757812	166.0003662109375	-1714.969116210938	1136.3828125	67.41606903076172	-1555.59765625	922.4862060546875	135.7835083007812	-1630.492065429688	899.044677734375	181.431640625	-1679.302124023438	1068.639770507812	180.7114562988281	-1532.159912109375	736.794677734375	103.2229385375977	-1524.271118164062	828.9472045898438	140.48974609375	-1597.41357421875	817.18798828125	173.8921203613281	-1667.728515625	1684.333129882812	-71.70130920410156	-1481.54443359375	1725.486694335938	-175.7986755371094	-1500.526245117188	1727.8115234375	-47.72311401367188	-1653.809936523438	1688.872680664062	-208.8095245361328	-1644.4716796875	989.156005859375	-290.4998168945312	-1618.700073242188	1014.637023925781	76.79480743408203	-1532.55029296875	1041.567260742188	27.7450065612793	-1522.960083007812	1025.183349609375	-230.6683959960938	-1643.909545898438	495.4931030273438	-258.9369201660156	-1630.363159179688	637.1384887695312	-284.9864501953125	-1735.9052734375	42.44211196899414	-270.4438781738281	-1688.249267578125	276.0099487304688	-278.1438293457031	-1515.931396484375	39.39460754394531	-264.7788391113281	-1561.3447265625	38.2634162902832	-211.66259765625	-1632.143432617188	34.79749298095703	-319.3691101074219	-1780.68603515625	40.19406509399414	-195.9845123291016	-1627.294921875	515.0564575195312	67.56246948242188	-1577.421142578125	783.2372436523438	93.20785522460938	-1731.141967773438	38.49817657470703	72.68341064453125	-1622.414428710938	397.0817260742188	54.56981658935547	-1505.941162109375	39.15032577514648	64.53206634521484	-1555.47705078125	37.01305389404297	12.63683795928955	-1622.770751953125	35.61373519897461	120.7629089355469	-1774.2041015625	38.00714874267578	-0.642429530620575	
